<svg width="16" height="16" viewBox="0 0 16 16" fill="none" xmlns="http://www.w3.org/2000/svg">
<g clip-path="url(#clip0_7201_62703)">
<path fill-rule="evenodd" clip-rule="evenodd" d="M2 4.5C2 3.11929 3.11929 2 4.5 2H11.5C12.8807 2 14 3.11929 14 4.5V6.99891C13.6418 7.06044 13.3008 7.19756 13 7.40081V6H3V11.5C3 12.3284 3.67157 13 4.5 13H7.61742C7.49927 13.2398 7.4064 13.4924 7.34103 13.754L7.28014 14H4.5C3.11929 14 2 12.8807 2 11.5V4.5ZM3 5H13V4.5C13 3.67157 12.3284 3 11.5 3H4.5C3.67157 3 3 3.67157 3 4.5V5Z" fill="#202020"/>
<path d="M15.5449 8.45394C15.2519 8.1616 14.8549 7.99741 14.4409 7.99741C14.027 7.99741 13.63 8.1616 13.3369 8.45394L9.04895 12.7414C8.69299 13.0975 8.44065 13.5437 8.31895 14.0322L8.01895 15.2431C7.99361 15.3451 7.99509 15.452 8.02324 15.5533C8.0514 15.6547 8.10528 15.747 8.17964 15.8213C8.25401 15.8957 8.34633 15.9495 8.44766 15.9777C8.54899 16.0059 8.65588 16.0073 8.75795 15.982L9.96895 15.682C10.4572 15.5598 10.9031 15.3071 11.2589 14.9511L15.5479 10.6637C15.6931 10.5185 15.8081 10.3461 15.8865 10.1564C15.9649 9.96673 16.0051 9.76344 16.0049 9.55818C16.0046 9.35293 15.9638 9.14974 15.8849 8.96026C15.806 8.77078 15.6905 8.59872 15.5449 8.45394V8.45394Z" fill="#006CBF"/>
</g>
<defs>
<clipPath id="clip0_7201_62703">
<rect width="16" height="16" fill="white"/>
</clipPath>
</defs>
</svg>
