<svg width="16" height="16" viewBox="0 0 16 16" fill="none" xmlns="http://www.w3.org/2000/svg">
<path d="M2 4.5V5.5H5.58579C5.71839 5.5 5.84557 5.44732 5.93934 5.35355L7.29289 4L5.93934 2.64645C5.84557 2.55268 5.71839 2.5 5.58579 2.5H3.5C2.67157 2.5 2 3.17157 2 4ZM1 4C1 2.61929 2.11929 1.5 3.5 1.5H5.58579C5.98361 1.5 6.36514 1.65804 6.64645 1.93934L8.20711 3.5H12.5C13.6046 3.5 14.5 4.39543 14.5 5.5V6.5H15.5L13.7 12.7C13.45 13.45 12.7 14 11.9 14H2.6C1.7 14 1 13.3 1 12.4V4ZM2 6.5V12.4C2 12.7 2.3 13 2.6 13H11.9C12.2 13 12.5 12.8 12.6 12.5L14 7H4.5L3.5 11H2.5L3.5 6.5H2Z" fill="#B27C00"/>
</svg>
