<svg width="16" height="16" viewBox="0 0 16 16" fill="none" xmlns="http://www.w3.org/2000/svg">
<g clip-path="url(#clip0_9596_22318)">
<path fill-rule="evenodd" clip-rule="evenodd" d="M10.5811 11L10.0869 12.8818C10.0139 13.1848 9.84447 13.4563 9.60547 13.6553C9.36753 13.8541 9.07448 13.974 8.76562 14H7.3623C7.0453 14 6.73552 13.9008 6.47852 13.7168C6.22966 13.5398 6.0423 13.2889 5.94434 13L5.93652 12.9775L5.46582 11H10.5811ZM6.73242 12L6.89941 12.7002C6.93242 12.7812 6.98856 12.8504 7.06055 12.9004C7.14742 12.9643 7.25252 12.9989 7.36035 13H8.7002C8.79906 12.9879 8.89287 12.9468 8.96777 12.8809C9.04275 12.8199 9.09617 12.7346 9.11816 12.6406V12.6279L9.28223 12H6.73242Z" fill="#202020"/>
<path d="M8.09668 2.00185C8.03228 2.15736 7.99903 2.32466 7.99902 2.49697C7.99902 2.67409 8.03425 2.84631 8.09961 3.00185C8.06645 3.00107 8.03326 2.99975 8 2.9999C7.54403 2.9959 7.09092 3.08374 6.66895 3.25771C6.24695 3.43171 5.86397 3.68857 5.54297 4.01357C4.88712 4.69954 4.514 5.60766 4.5 6.55654C4.63309 7.67737 5.18503 8.70652 6.04492 9.43642L6.14453 9.53603L6.49414 10.9999H5.46582L5.2373 10.037C4.2453 9.14401 3.625 7.91093 3.5 6.58193V6.54384C3.51806 5.33602 3.99517 4.18036 4.83301 3.31045C5.24701 2.89245 5.74018 2.55986 6.28418 2.33486C6.82811 2.10992 7.41109 1.9959 8 1.9999C8.03227 1.99982 8.06448 2.00125 8.09668 2.00185Z" fill="#B27C00"/>
<path fill-rule="evenodd" clip-rule="evenodd" d="M8 4.49209C8.487 4.49209 8.95727 4.66911 9.32227 4.99111C9.68718 5.3131 9.92338 5.7572 9.98438 6.24013C10.0453 6.72307 9.92821 7.21217 9.65527 7.61513C9.38227 8.01813 8.971 8.30759 8.5 8.42959V10.9999H7.5V8.42959C7.029 8.30759 6.61773 8.01813 6.34473 7.61513C6.07179 7.21217 5.95465 6.72307 6.01562 6.24013C6.07662 5.7572 6.31282 5.3131 6.67773 4.99111C7.04273 4.67011 7.513 4.49209 8 4.49209ZM7.80469 5.51845C7.61087 5.55749 7.43287 5.65203 7.29297 5.79189C7.15297 5.93189 7.05655 6.11059 7.01855 6.30459C6.98072 6.49833 7.00033 6.69897 7.07617 6.88173C7.15117 7.06473 7.28034 7.22095 7.44434 7.33095L7.44531 7.32998C7.61027 7.4399 7.80305 7.49892 8.00098 7.49892C8.26598 7.49892 8.52001 7.39395 8.70801 7.20595C8.89596 7.01896 9.00098 6.76388 9.00098 6.49892C9.00094 6.30103 8.94195 6.10718 8.83203 5.94326C8.72203 5.77926 8.56581 5.65109 8.38281 5.57509C8.19986 5.49915 7.99863 5.47946 7.80469 5.51845Z" fill="#B27C00"/>
<path d="M11.4375 6.9374C11.5554 7.03753 11.6928 7.11931 11.8545 7.17666L12.377 7.34853C12.3024 7.66822 12.1948 7.9803 12.0547 8.2792C11.7777 8.87212 11.3797 9.40098 10.8867 9.83193L10.5811 10.9999H9.54297L9.99219 9.29189L10.0996 9.19228C10.5195 8.85136 10.8615 8.42516 11.1035 7.9413C11.2619 7.6233 11.3732 7.28491 11.4375 6.9374Z" fill="#B27C00"/>
<path d="M13.8 2.217L13.785 2.213L13.02 1.964C12.861 1.911 12.712 1.834 12.578 1.735C12.516 1.689 12.457 1.638 12.402 1.583C12.229 1.41 12.098 1.198 12.021 0.966L11.772 0.201C11.751 0.142 11.713 0.091 11.661 0.055C11.614 0.022 11.559 0.003 11.502 0C11.497 0 11.492 0 11.487 0C11.424 0 11.363 0.019 11.312 0.055C11.261 0.091 11.222 0.142 11.202 0.201L10.953 0.966C10.877 1.197 10.749 1.407 10.578 1.58C10.553 1.605 10.528 1.629 10.502 1.652C10.347 1.79 10.166 1.896 9.96905 1.964L9.37405 2.157H9.37205L9.20005 2.212C9.14105 2.233 9.09005 2.272 9.05405 2.323C9.01805 2.374 8.99805 2.435 8.99805 2.498C8.99805 2.561 9.01805 2.622 9.05405 2.672C9.09005 2.723 9.14105 2.761 9.20005 2.782L9.96705 3.031L10.05 3.061C10.05 3.061 10.055 3.063 10.057 3.064C10.12 3.089 10.182 3.119 10.241 3.152C10.367 3.223 10.482 3.311 10.585 3.413C10.739 3.566 10.859 3.75 10.937 3.952C10.947 3.979 10.957 4.006 10.966 4.033L11.215 4.798C11.236 4.857 11.274 4.908 11.326 4.944C11.377 4.98 11.438 5 11.501 5H11.505C11.566 5 11.626 4.98 11.676 4.944C11.71 4.92 11.738 4.889 11.76 4.854C11.771 4.836 11.78 4.817 11.787 4.798L12.036 4.033C12.113 3.8 12.244 3.589 12.417 3.416C12.59 3.243 12.802 3.112 13.035 3.035L13.8 2.786C13.859 2.765 13.91 2.727 13.946 2.676C13.982 2.625 14.002 2.564 14.002 2.501C14.002 2.438 13.983 2.378 13.946 2.326C13.91 2.275 13.859 2.237 13.8 2.217ZM15.216 5.572L15.828 5.771L15.84 5.774C15.887 5.791 15.928 5.822 15.957 5.862C15.986 5.903 16.001 5.952 16.001 6.002C16.001 6.052 15.985 6.101 15.957 6.142C15.929 6.183 15.887 6.214 15.84 6.23L15.228 6.429C15.042 6.491 14.873 6.595 14.734 6.734C14.595 6.873 14.491 7.042 14.429 7.228L14.23 7.84C14.213 7.887 14.183 7.928 14.142 7.957C14.101 7.986 14.052 8.001 14.002 8.001C14 8.001 13.997 8.001 13.995 8.001C13.946 8.001 13.899 7.985 13.859 7.957C13.818 7.928 13.787 7.887 13.771 7.84L13.571 7.228C13.509 7.042 13.404 6.872 13.266 6.733C13.127 6.594 12.958 6.49 12.771 6.428L12.747 6.42V6.417L12.164 6.228C12.117 6.211 12.076 6.18 12.047 6.14C12.018 6.099 12.003 6.05 12.003 6C12.003 5.95 12.019 5.901 12.047 5.86C12.075 5.819 12.117 5.788 12.164 5.772L12.776 5.573C12.96 5.51 13.127 5.404 13.263 5.266C13.4 5.127 13.502 4.959 13.563 4.775L13.762 4.163C13.779 4.116 13.81 4.075 13.85 4.046C13.891 4.017 13.94 4.002 13.99 4.002C14.04 4.002 14.089 4.018 14.13 4.046C14.171 4.075 14.202 4.116 14.218 4.163L14.417 4.775C14.479 4.961 14.583 5.13 14.722 5.269C14.861 5.408 15.03 5.512 15.216 5.574V5.572Z" fill="#202020"/>
</g>
<defs>
<clipPath id="clip0_9596_22318">
<rect width="16" height="16" fill="white"/>
</clipPath>
</defs>
</svg>
