<svg width="16" height="16" viewBox="0 0 16 16" fill="none" xmlns="http://www.w3.org/2000/svg">
<g clip-path="url(#clip0_3502_126)">
<path fill-rule="evenodd" clip-rule="evenodd" d="M14.5564 7.87401C14.5384 7.89251 14.5204 7.91051 14.5024 7.92801L8.69843 13.6195C8.62593 13.69 8.62443 13.8055 8.69493 13.878C8.69593 13.8795 8.69743 13.8805 8.69843 13.8815L9.89043 15.051C10.1074 15.262 10.1124 15.6095 9.90143 15.827C9.89793 15.8305 9.89443 15.8345 9.89043 15.838C9.66693 16.055 9.31193 16.055 9.08843 15.838L7.89643 14.6695C7.38943 14.177 7.37793 13.3665 7.87043 12.8595C7.87893 12.8505 7.88743 12.842 7.89643 12.8335L13.7004 7.14151C14.3519 6.50701 14.3664 5.46451 13.7319 4.81301C13.7214 4.80251 13.7109 4.79201 13.7004 4.78151L13.6669 4.74901C12.9979 4.09801 11.9324 4.09701 11.2624 4.74701L6.48093 9.43651L6.47943 9.43801L6.41393 9.50251C6.19043 9.72001 5.83443 9.72001 5.61143 9.50251C5.39443 9.29101 5.38943 8.94401 5.60043 8.72651C5.60393 8.72301 5.60743 8.71901 5.61143 8.71551L10.4599 3.96001C11.1104 3.32451 11.1229 2.28201 10.4874 1.63151C10.4779 1.62151 10.4679 1.61201 10.4579 1.60201C9.78793 0.950009 8.72093 0.950009 8.05143 1.60201L1.63493 7.89451C1.41143 8.11151 1.05643 8.11151 0.832926 7.89451C0.615926 7.68351 0.610926 7.33601 0.821926 7.11851C0.825426 7.11501 0.828926 7.11101 0.832926 7.10751L7.24993 0.814509C8.36593 -0.271991 10.1444 -0.271991 11.2604 0.814509C11.8904 1.42701 12.1889 2.30451 12.0629 3.17451C12.9434 3.04951 13.8324 3.34001 14.4689 3.96101L14.5024 3.99451C15.5884 5.05101 15.6129 6.78751 14.5564 7.87351V7.87401ZM12.8654 6.32151C13.0829 6.11001 13.0874 5.76301 12.8764 5.54551C12.8729 5.54201 12.8694 5.53801 12.8654 5.53451C12.6419 5.31701 12.2859 5.31701 12.0629 5.53451L7.31693 10.189C6.64693 10.841 5.57993 10.841 4.91043 10.189C4.25893 9.55451 4.24443 8.51201 4.87893 7.86051C4.88943 7.85001 4.89993 7.83951 4.91043 7.82901L9.65693 3.17451C9.87393 2.96301 9.87893 2.61601 9.66793 2.39851C9.66443 2.39501 9.66093 2.39101 9.65693 2.38751C9.43343 2.17001 9.07743 2.17001 8.85443 2.38751L4.10843 7.04201C3.02243 8.09851 2.99793 9.83501 4.05443 10.921C4.07243 10.9395 4.09043 10.9575 4.10843 10.975C5.22493 12.061 7.00293 12.061 8.11893 10.975L12.8654 6.32051V6.32151Z" fill="#202020"/>
</g>
<defs>
<clipPath id="clip0_3502_126">
<rect width="16" height="16" fill="white"/>
</clipPath>
</defs>
</svg>
