<svg width="16" height="16" viewBox="0 0 24 24" fill="none" xmlns="http://www.w3.org/2000/svg"><defs><mask id="ace-icon-new-session-base-cutout" maskUnits="userSpaceOnUse" x="0" y="0" width="24" height="24"><rect width="24" height="24" fill="white"/><path d="M12.2 11.2L19.45 3.95" stroke="black" stroke-width="5.6" stroke-linecap="round"/><path d="M18.6 15.4V21.8M15.4 18.6H21.8" stroke="black" stroke-width="5" stroke-linecap="round"/></mask></defs><g mask="url(#ace-icon-new-session-base-cutout)"><path d="M5.5 3.75H15.25C16.22 3.75 17 4.53 17 5.5V16.5C17 17.47 16.22 18.25 15.25 18.25H5.5C4.53 18.25 3.75 17.47 3.75 16.5V5.5C3.75 4.53 4.53 3.75 5.5 3.75Z" stroke="#333" stroke-width="1.3" stroke-linejoin="round"/><path d="M7.2 8.65H11.7M7.2 11.65H10.35" stroke="#333" stroke-width="1.25" stroke-linecap="round"/></g><path d="M12.2 11.2L19.45 3.95" stroke="#333" stroke-width="1.55" stroke-linecap="round"/><path d="M18.6 15.4V21.8M15.4 18.6H21.8" stroke="#333" stroke-width="1.8" stroke-linecap="round"/></svg>
