<svg width="16" height="16" viewBox="0 0 16 16" fill="none" xmlns="http://www.w3.org/2000/svg">
<path fill-rule="evenodd" clip-rule="evenodd" d="M8 2.5086V4.5C8 5.32843 8.67157 6 9.5 6H12V13C12 13.5523 11.5523 14 11 14H5C4.44772 14 4 13.5523 4 13V5.91933C3.895 5.88234 3.79381 5.83355 3.69844 5.77343C3.41026 5.59174 3.19251 5.31737 3.08101 4.99546C3.03358 4.85852 3.00658 4.71644 3 4.57367L3 13C3 14.1046 3.89543 15 5 15H11C12.1046 15 13 14.1046 13 13V5.41421C13 5.01639 12.842 4.63486 12.5607 4.35355L9.64645 1.43934C9.36514 1.15804 8.98361 1 8.58579 1H7.11973L7.561 1.44127C7.70053 1.58043 7.81116 1.74582 7.8865 1.92792C7.89635 1.95173 7.90558 1.97576 7.91417 2H8V2.49594C8 2.49805 8 2.50016 8 2.50227C8 2.50438 8 2.50649 8 2.5086ZM9.5 5H11.7929L9 2.20711V4.5C9 4.77614 9.22386 5 9.5 5Z" fill="#202020"/>
<path d="M3 4.43543C3.00677 4.28866 3.03511 4.14267 3.085 4.00227H3L3 4.43543Z" fill="#202020"/>
<path d="M4.854 0.148274L6.854 2.14827C6.90056 2.19472 6.93751 2.2499 6.96271 2.31064C6.98792 2.37139 7.00089 2.43651 7.00089 2.50227C7.00089 2.56804 6.98792 2.63316 6.96271 2.69391C6.93751 2.75465 6.90056 2.80983 6.854 2.85627L4.854 4.85627C4.76011 4.95016 4.63278 5.00291 4.5 5.00291C4.36722 5.00291 4.23989 4.95016 4.146 4.85627C4.05211 4.76239 3.99937 4.63505 3.99937 4.50227C3.99937 4.3695 4.05211 4.24216 4.146 4.14827L5.293 3.00227L2.5 3.00227C2.10218 3.00227 1.72064 3.16031 1.43934 3.44161C1.15804 3.72292 1 4.10445 1 4.50227L1 5.50227C1 5.63488 0.947322 5.76206 0.853554 5.85583C0.759786 5.9496 0.632608 6.00227 0.5 6.00227C0.367392 6.00227 0.240214 5.9496 0.146446 5.85583C0.0526781 5.76206 1.60592e-08 5.63488 2.18557e-08 5.50227L6.55671e-08 4.50227C9.45495e-08 3.83923 0.263392 3.20335 0.732233 2.73451C1.20107 2.26567 1.83696 2.00227 2.5 2.00227L5.293 2.00227L4.146 0.856274C4.05211 0.762387 3.99937 0.635049 3.99937 0.502274C3.99937 0.369498 4.05211 0.24216 4.146 0.148274C4.23989 0.054387 4.36722 0.00164194 4.5 0.00164195C4.63278 0.00164195 4.76011 0.054387 4.854 0.148274V0.148274Z" fill="#006CBF"/>
</svg>
