<svg width="16" height="16" viewBox="0 0 16 16" fill="none" xmlns="http://www.w3.org/2000/svg">
<g clip-path="url(#clip0_4517_404)">
<path d="M6.5 1C7.23921 1 7.944 1.14667 8.58789 1.41113C8.44944 1.50155 8.33017 1.61237 8.24805 1.7334C8.13166 1.89271 8.05406 2.07274 8.01953 2.26367C7.5448 2.09337 7.03334 2 6.5 2C4.01472 2 2 4.01472 2 6.5C2 8.98528 4.01472 11 6.5 11C8.98528 11 11 8.98528 11 6.5C11 6.33096 10.9898 6.1642 10.9717 6H11.002C11.0026 6.25192 11.079 6.49658 11.2354 6.72266C11.3844 6.92966 11.5895 7.08276 11.8545 7.17676L11.9531 7.20898C11.8165 8.27025 11.3789 9.23698 10.7266 10.0195L13.8535 13.1465C14.0488 13.3417 14.0488 13.6583 13.8535 13.8535C13.6583 14.0488 13.3417 14.0488 13.1465 13.8535L10.0195 10.7266C9.06578 11.5216 7.83875 12 6.5 12C3.46243 12 1 9.53757 1 6.5C1 3.46243 3.46243 1 6.5 1Z" fill="#202020"/>
<path d="M13.8 2.217L13.785 2.213L13.02 1.964C12.861 1.911 12.712 1.834 12.578 1.735C12.516 1.689 12.457 1.638 12.402 1.583C12.229 1.41 12.098 1.198 12.021 0.966L11.772 0.201C11.751 0.142 11.713 0.091 11.661 0.055C11.614 0.022 11.559 0.003 11.502 0C11.497 0 11.492 0 11.487 0C11.424 0 11.363 0.019 11.312 0.055C11.261 0.091 11.222 0.142 11.202 0.201L10.953 0.966C10.877 1.197 10.749 1.407 10.578 1.58C10.553 1.605 10.528 1.629 10.502 1.652C10.347 1.79 10.166 1.896 9.96905 1.964L9.37405 2.157H9.37205L9.20005 2.212C9.14105 2.233 9.09005 2.272 9.05405 2.323C9.01805 2.374 8.99805 2.435 8.99805 2.498C8.99805 2.561 9.01805 2.622 9.05405 2.672C9.09005 2.723 9.14105 2.761 9.20005 2.782L9.96705 3.031L10.05 3.061C10.05 3.061 10.055 3.063 10.057 3.064C10.12 3.089 10.182 3.119 10.241 3.152C10.367 3.223 10.482 3.311 10.585 3.413C10.739 3.566 10.859 3.75 10.937 3.952C10.947 3.979 10.957 4.006 10.966 4.033L11.215 4.798C11.236 4.857 11.274 4.908 11.326 4.944C11.377 4.98 11.438 5 11.501 5H11.505C11.566 5 11.626 4.98 11.676 4.944C11.71 4.92 11.738 4.889 11.76 4.854C11.771 4.836 11.78 4.817 11.787 4.798L12.036 4.033C12.113 3.8 12.244 3.589 12.417 3.416C12.59 3.243 12.802 3.112 13.035 3.035L13.8 2.786C13.859 2.765 13.91 2.727 13.946 2.676C13.982 2.625 14.002 2.564 14.002 2.501C14.002 2.438 13.983 2.378 13.946 2.326C13.91 2.275 13.859 2.237 13.8 2.217ZM15.216 5.572L15.828 5.771L15.84 5.774C15.887 5.791 15.928 5.822 15.957 5.862C15.986 5.903 16.001 5.952 16.001 6.002C16.001 6.052 15.985 6.101 15.957 6.142C15.929 6.183 15.887 6.214 15.84 6.23L15.228 6.429C15.042 6.491 14.873 6.595 14.734 6.734C14.595 6.873 14.491 7.042 14.429 7.228L14.23 7.84C14.213 7.887 14.183 7.928 14.142 7.957C14.101 7.986 14.052 8.001 14.002 8.001C14 8.001 13.997 8.001 13.995 8.001C13.946 8.001 13.899 7.985 13.859 7.957C13.818 7.928 13.787 7.887 13.771 7.84L13.571 7.228C13.509 7.042 13.404 6.872 13.266 6.733C13.127 6.594 12.958 6.49 12.771 6.428L12.747 6.42V6.417L12.164 6.228C12.117 6.211 12.076 6.18 12.047 6.14C12.018 6.099 12.003 6.05 12.003 6C12.003 5.95 12.019 5.901 12.047 5.86C12.075 5.819 12.117 5.788 12.164 5.772L12.776 5.573C12.96 5.51 13.127 5.404 13.263 5.266C13.4 5.127 13.502 4.959 13.563 4.775L13.762 4.163C13.779 4.116 13.81 4.075 13.85 4.046C13.891 4.017 13.94 4.002 13.99 4.002C14.04 4.002 14.089 4.018 14.13 4.046C14.171 4.075 14.202 4.116 14.218 4.163L14.417 4.775C14.479 4.961 14.583 5.13 14.722 5.269C14.861 5.408 15.03 5.512 15.216 5.574V5.572Z" fill="#202020"/>
</g>
<defs>
<clipPath id="clip0_4517_404">
<rect width="16" height="16" fill="white"/>
</clipPath>
</defs>
</svg>
