<svg width="16" height="16" viewBox="0 0 16 16" fill="none" xmlns="http://www.w3.org/2000/svg">
<path d="M8 1C4.134 1 1 4.134 1 8C1 11.866 4.134 15 8 15C11.866 15 15 11.866 15 8C15 4.134 11.866 1 8 1ZM8 12.25C7.586 12.25 7.25 11.914 7.25 11.5C7.25 11.086 7.586 10.75 8 10.75C8.414 10.75 8.75 11.086 8.75 11.5C8.75 11.914 8.414 12.25 8 12.25ZM9.219 8.608C8.721 8.91 8.5 9.062 8.5 9.5C8.5 9.776 8.276 10 8 10C7.724 10 7.5 9.776 7.5 9.5C7.5 8.479 8.194 8.059 8.702 7.753C9.226 7.437 9.5 7.245 9.5 6.688C9.496 6.494 9.405 5.5 8 5.5C6.595 5.5 6.504 6.493 6.5 6.692C6.494 6.966 6.292 7.158 5.995 7.185C5.721 7.182 5.5 6.962 5.5 6.687C5.5 5.93 6.022 4.499 8 4.499C9.978 4.499 10.5 5.93 10.5 6.687C10.5 7.835 9.76 8.282 9.219 8.608Z" fill="#006CBF"/>
</svg>
