<svg width="16" height="16" viewBox="0 0 16 16" fill="none" xmlns="http://www.w3.org/2000/svg">
<g clip-path="url(#clip0_7204_98867)">
<path fill-rule="evenodd" clip-rule="evenodd" d="M3.5 2C2.11929 2 1 3.11929 1 4.5V11.5C1 12.8807 2.11929 14 3.5 14H7.28812L7.34103 13.7863C7.40933 13.5129 7.50767 13.2493 7.6335 13H3.5C2.67157 13 2 12.3284 2 11.5V6H12V8.36683L12.623 7.74403C12.7393 7.62774 12.8657 7.5238 13 7.43304V4.5C13 3.11929 11.8807 2 10.5 2H3.5ZM12 5H2V4.5C2 3.67157 2.67157 3 3.5 3H10.5C11.3284 3 12 3.67157 12 4.5V5Z" fill="#202020"/>
<path d="M10.3662 10H6.5C6.22386 10 6 10.2239 6 10.5C6 10.7761 6.22386 11 6.5 11H9.36589L10.3662 10Z" fill="#202020"/>
<path d="M5.35355 8.64645L3.85355 7.14645C3.65829 6.95118 3.34171 6.95118 3.14645 7.14645C2.95118 7.34171 2.95118 7.65829 3.14645 7.85355L4.29289 9L3.14645 10.1464C2.95118 10.3417 2.95118 10.6583 3.14645 10.8536C3.34171 11.0488 3.65829 11.0488 3.85355 10.8536L5.35355 9.35355C5.54882 9.15829 5.54882 8.84171 5.35355 8.64645Z" fill="#202020"/>
<path d="M15.5449 8.45393C15.2519 8.16159 14.8549 7.99741 14.4409 7.99741C14.027 7.99741 13.63 8.16159 13.3369 8.45393L9.04895 12.7414C8.69299 13.0975 8.44065 13.5437 8.31895 14.0322L8.01895 15.2431C7.99361 15.3451 7.99509 15.452 8.02324 15.5533C8.0514 15.6546 8.10528 15.747 8.17964 15.8213C8.25401 15.8957 8.34633 15.9495 8.44766 15.9777C8.54899 16.0058 8.65588 16.0073 8.75795 15.982L9.96895 15.682C10.4572 15.5598 10.9031 15.3071 11.2589 14.9511L15.5479 10.6637C15.6931 10.5185 15.8081 10.3461 15.8865 10.1564C15.9649 9.96672 16.0051 9.76343 16.0049 9.55817C16.0046 9.35292 15.9638 9.14973 15.8849 8.96025C15.806 8.77077 15.6905 8.59872 15.5449 8.45393V8.45393Z" fill="#006CBF"/>
</g>
<defs>
<clipPath id="clip0_7204_98867">
<rect width="16" height="16" fill="white"/>
</clipPath>
</defs>
</svg>
